<?xml version="1.0" encoding="UTF-8" standalone="no"?>
<svg
   xmlns:dc="http://purl.org/dc/elements/1.1/"
   xmlns:cc="http://creativecommons.org/ns#"
   xmlns:rdf="http://www.w3.org/1999/02/22-rdf-syntax-ns#"
   xmlns:svg="http://www.w3.org/2000/svg"
   xmlns="http://www.w3.org/2000/svg"
   viewBox="0 0 1440 1440"
   height="32"
   width="32"
   xml:space="preserve"
   id="svg2"
   version="1.1"><metadata
     id="metadata8"><rdf:RDF><cc:Work
         rdf:about=""><dc:format>image/svg+xml</dc:format><dc:type
           rdf:resource="http://purl.org/dc/dcmitype/StillImage" /></cc:Work></rdf:RDF></metadata><defs
     id="defs6" /><g
     transform="matrix(1.3,0,0,-1.3,0,1440)"
     id="g10"><g
       transform="scale(0.1)"
       id="g12"><path
         id="path14"
         style="fill: #000080; fill-rule: nonzero; stroke: none; fill-opacity: 1"
         d="M 9190.4 5120 c 0 1999.5 -1620.9 3620.4 -3620.4 3620.4 c -1999.5 0 -3620.4 -1620.9 -3620.4 -3620.4 c 0 -1999.5 1620.9 -3620.4 3620.4 -3620.4 c 1999.5 0 3620.4 1620.9 3620.4 3620.4" /><path
         id="path16"
         style="fill: #ffffff; fill-rule: nonzero; stroke: none; fill-opacity: 1"
         d="M 8130 6619.6 C 8130 7205.3 7655.3 7680 7069.6 7680 c -585.6 0 -1060.4 -474.8 -1060.4 -1060.4 c 0 -585.6 474.8 -1060.4 1060.4 -1060.4 c 585.6 0 1060.4 474.8 1060.4 1060.4" /><g
         transform="scale(10)"
         id="g20">
</g></g></g></svg>